# xmcd CD database file
#
# Track frame offsets:
#	150
#	19342
#	53859
#	72475
#	110628
#	132375
#	151906
#	173323
#	198008
#	220360
#	252428
#	267738
#	297975
#	313002
#	332688
#
# Disc length: 4686 seconds
#
# Revision: 0
# Processed by: cddbd v1.5.2PL0 Copyright (c) Steve Scherf et al.
# Submitted via: CDex 1.70beta2
#
DISCID=e7124c0f
DTITLE=Various Artist - JAZZ COLUSSEUM
DYEAR=2008
DGENRE=Jazz
TTITLE0=K-Jee - MFSB
TTITLE1=Kuru/Speak Like A Child - JACO PASTRIUS
TTITLE2=In The Fast Lane - JEAN LUC PONTY
TTITLE3=Sun Goddess - RAMSEY LEWIS
TTITLE4=Endless Flight - RODNEY FRANKLIN
TTITLE5=After The Storm - JEAN LUC PONTY
TTITLE6=Palladium - WEATHER REPORT
TTITLE7=Tequila Mockingbird - RAMSEY LEWIS
TTITLE8=All Those Things(Aquillas Coisas Todas) - STARSHIP ORCHESTRA
TTITLE9=Waltz For Moe - PAQUITO D'RIVERA
TTITLE10=Spirit Of Love - EDDIE PALMIERI
TTITLE11=Festival - GEORGE DUKE
TTITLE12=On The Path - RODNEY FRANKLIN
TTITLE13=Moments Notice - PAQUITO D'RIVERA
TTITLE14=Everybody's Boppin' - LAMBERT, HENDRICKS and ROSS
EXTD=YEAR: 2008
EXTT0=
EXTT1=
EXTT2=
EXTT3=
EXTT4=
EXTT5=
EXTT6=
EXTT7=
EXTT8=
EXTT9=
EXTT10=
EXTT11=
EXTT12=
EXTT13=
EXTT14=
PLAYORDER=
